<svg width="55" height="55" viewBox="0 0 55 55" fill="none" xmlns="http://www.w3.org/2000/svg">
<circle cx="27.5" cy="27.5" r="27" stroke="#111111"/>
<g clip-path="url(#clip0_11_22)">
<path d="M27.5028 21.0903C23.9612 21.0792 21.0834 23.9465 21.0722 27.4888C21.0611 31.0312 23.9278 33.9097 27.4693 33.9208C31.0109 33.932 33.8887 31.0647 33.8999 27.5223C33.911 23.98 31.0443 21.1015 27.5028 21.0903ZM27.4693 23.344C29.7672 23.3329 31.6355 25.1905 31.6467 27.4888C31.6578 29.7872 29.8006 31.656 27.5028 31.6671C25.205 31.6783 23.3366 29.8206 23.3254 27.5223C23.3143 25.224 25.1715 23.3552 27.4693 23.344ZM32.6785 20.8281C32.6785 20.0025 33.3477 19.3331 34.1732 19.3331C34.9986 19.3331 35.6679 20.0025 35.6679 20.8281C35.6679 21.6537 34.9986 22.3232 34.1732 22.3232C33.3477 22.3232 32.6785 21.6537 32.6785 20.8281ZM39.9122 22.3455C39.8173 20.3428 39.36 18.5688 37.8932 17.1073C36.432 15.6457 34.6584 15.1883 32.6562 15.0879C30.5926 14.9707 24.4074 14.9707 22.3438 15.0879C20.3472 15.1827 18.5736 15.6401 17.1068 17.1017C15.64 18.5633 15.1882 20.3372 15.0878 22.3399C14.9707 24.4039 14.9707 30.5905 15.0878 32.6545C15.1827 34.6572 15.64 36.4312 17.1068 37.8927C18.5736 39.3543 20.3416 39.8117 22.3438 39.9121C24.4074 40.0293 30.5926 40.0293 32.6562 39.9121C34.6584 39.8173 36.432 39.3599 37.8932 37.8927C39.3544 36.4312 39.8118 34.6572 39.9122 32.6545C40.0293 30.5905 40.0293 24.4095 39.9122 22.3455ZM37.2462 34.8692C36.8112 35.9626 35.969 36.8049 34.8703 37.2456C33.225 37.8983 29.321 37.7477 27.5028 37.7477C25.6846 37.7477 21.775 37.8927 20.1352 37.2456C19.0421 36.8105 18.1999 35.9681 17.7593 34.8692C17.1068 33.2235 17.2574 29.3186 17.2574 27.5C17.2574 25.6814 17.1124 21.7709 17.7593 20.1308C18.1944 19.0374 19.0365 18.1951 20.1352 17.7544C21.7805 17.1017 25.6846 17.2523 27.5028 17.2523C29.321 17.2523 33.2306 17.1073 34.8703 17.7544C35.9635 18.1895 36.8056 19.0319 37.2462 20.1308C37.8988 21.7765 37.7482 25.6814 37.7482 27.5C37.7482 29.3186 37.8988 33.2291 37.2462 34.8692Z" fill="black"/>
</g>
<defs>
<clipPath id="clip0_11_22">
<rect width="25" height="25" fill="white" transform="translate(15 15)"/>
</clipPath>
</defs>
</svg>
