<svg width="55" height="55" viewBox="0 0 55 55" fill="none" xmlns="http://www.w3.org/2000/svg">
<circle cx="27.5" cy="27.5" r="27" stroke="#111111"/>
<path d="M40 25.2521C37.5425 25.2573 35.1453 24.5867 33.147 23.3351V32.0639C33.1463 33.6806 32.5816 35.2585 31.5283 36.5868C30.475 37.915 28.9833 38.9302 27.2528 39.4967C25.5222 40.0632 23.6353 40.1539 21.8442 39.7566C20.0532 39.3594 18.4434 38.4933 17.2302 37.274C16.0169 36.0547 15.258 34.5403 15.055 32.9335C14.8519 31.3266 15.2144 29.7038 16.0939 28.282C16.9734 26.8602 18.328 25.7073 19.9766 24.9773C21.6252 24.2474 23.4892 23.9752 25.3194 24.1972V28.5874C24.4819 28.3569 23.5826 28.3639 22.7499 28.6073C21.9172 28.8507 21.1936 29.318 20.6826 29.9427C20.1716 30.5673 19.8992 31.3173 19.9044 32.0854C19.9096 32.8536 20.192 33.6007 20.7114 34.22C21.2308 34.8394 21.9606 35.2993 22.7965 35.534C23.6324 35.7688 24.5318 35.7665 25.3661 35.5274C26.2005 35.2883 26.9271 34.8246 27.4423 34.2026C27.9575 33.5806 28.2349 32.8321 28.2349 32.0639V15H33.147C33.1436 15.363 33.1784 15.7254 33.2508 16.0828C33.4215 16.8806 33.7764 17.6395 34.2939 18.3132C34.8113 18.9869 35.4803 19.5611 36.2601 20.0008C37.3694 20.6426 38.6701 20.9847 40 20.9844V25.2521Z" fill="black"/>
</svg>
